<svg viewBox="0 0 1000 500" xmlns="http://www.w3.org/2000/svg" fill="currentColor">
  <!-- Greenland -->
  <path d="M 339,36 L 408,19 L 450,36 L 450,56 L 430,69 L 378,83 L 356,75 L 342,56 Z"/>
  <!-- Iceland -->
  <path d="M 432,69 L 464,64 L 467,75 L 441,80 L 430,73 Z"/>
  <!-- North America -->
  <path d="M 33,100 L 64,53 L 125,58 L 167,44 L 250,42 L 311,47 L 347,103 L 353,119 L 333,133 L 308,136 L 294,150 L 280,164 L 275,183 L 258,175 L 250,169 L 231,178 L 261,192 L 270,222 L 278,228 L 208,197 L 194,186 L 155,147 L 155,122 L 125,92 Z"/>
  <!-- South America -->
  <path d="M 278,228 L 294,228 L 325,219 L 340,231 L 403,261 L 395,289 L 381,314 L 372,317 L 350,344 L 338,347 L 317,403 L 302,375 L 302,300 L 278,256 Z"/>
  <!-- British Isles -->
  <path d="M 425,69 L 444,61 L 453,75 L 444,89 L 425,83 Z"/>
  <!-- Europe -->
  <path d="M 475,142 L 469,150 L 483,117 L 483,89 L 514,78 L 572,53 L 578,69 L 564,92 L 550,100 L 561,148 L 553,145 L 542,144 L 519,128 L 494,131 Z"/>
  <!-- Africa -->
  <path d="M 431,208 L 453,208 L 478,150 L 486,150 L 525,147 L 569,164 L 589,164 L 619,219 L 642,217 L 611,278 L 597,317 L 578,344 L 553,347 L 533,331 L 533,264 L 525,250 L 508,233 L 478,236 L 453,208 Z"/>
  <!-- Madagascar -->
  <path d="M 580,311 L 594,297 L 609,320 L 604,362 L 586,370 L 574,347 Z"/>
  <!-- Asia (with India and Arabia) -->
  <path d="M 572,139 L 600,131 L 639,131 L 667,69 L 750,47 L 861,47 L 953,61 L 953,106 L 869,131 L 861,153 L 806,192 L 789,244 L 756,225 L 722,211 L 717,228 L 703,208 L 672,189 L 658,189 L 647,203 L 619,219 L 589,164 L 597,147 L 572,139 Z"/>
  <!-- Sri Lanka -->
  <path d="M 706,320 L 718,314 L 723,330 L 711,340 L 701,332 Z"/>
  <!-- Indochina + Malay Peninsula -->
  <path d="M 789,244 L 800,253 L 826,281 L 817,319 L 789,331 L 775,311 L 775,300 L 795,295 L 800,330 L 782,338 L 770,318 L 756,297 Z"/>
  <!-- Sumatra -->
  <path d="M 748,280 L 800,268 L 828,294 L 818,320 L 775,325 L 748,300 Z"/>
  <!-- Borneo -->
  <path d="M 808,278 L 858,268 L 878,298 L 868,340 L 832,352 L 800,330 L 800,298 Z"/>
  <!-- Japan -->
  <path d="M 875,95 L 900,81 L 913,106 L 900,127 L 875,119 Z"/>
  <!-- Philippines (simplified) -->
  <path d="M 839,205 L 853,198 L 860,216 L 847,228 L 836,218 Z"/>
  <!-- Australia -->
  <path d="M 758,350 L 864,333 L 911,363 L 923,424 L 893,463 L 807,471 L 751,440 L 738,397 Z"/>
  <!-- New Zealand -->
  <path d="M 919,400 L 936,390 L 949,415 L 936,435 L 919,430 Z"/>
  <path d="M 934,440 L 943,433 L 950,450 L 941,458 L 932,453 Z"/>
</svg>
